PathFileType	4	(X/Y/Z)	walk-thru1-3-TP.trc
DataRate	CameraRate	NumFrames	NumMarkers	Units	OrigDataRate	OrigDataStartFrame	OrigNumFrames
120.00	120.00	       6	60	mm	120.00	331	       528
Frame#	Time	Top.Head			Front.Head			Rear.Head			Jaw			C7			R.Clavicle			L.Clavicle			R.Shoulder			L.Shoulder			R.Scapula			L.Scapula			R.Scap.Inf			R.Biceps.Lateral			R.Elbow			R.Elbow.Medial			R.Forearm			R.Ulna			R.Radius			R.Wrist			R.Thumb.M1			R.Thumb.M2			R.Thumb.M3			R.Finger3.M1			R.Finger3.M2			R.Finger3.M3			L.Biceps.Lateral			L.Elbow			L.Elbow.Medial			L.Forearm			L.Ulna			L.Radius			L.Wrist			L.Thumb.M1			L.Thumb.M2			L.Thumb.M3			L.Finger3.M1			L.Finger3.M2			L.Finger3.M3			V.Sacral			R.ASIS			L.ASIS			R.Thigh			R.Thigh.Front			R.Knee			R.Knee.Medial			R.Shank			R.Ankle			R.Ankle.Medial			R.Heel			R.Toe			R.MedFoot			L.Thigh			L.Knee			L.Knee.Medial			L.Shank			L.Ankle			L.Ankle.Medial			L.Heel			L.Toe			L.MedFoot			V_mid_ASIS			V_R_Knee_JC			V_L_Knee_JC			V_R_Elbow_JC			V_L_Elbow_JC			V_R_Ankle_JC			V_L_Ankle_JC			V_R_Wrist_JC			V_L_Wrist_JC			V_R_ScaTrpz_1stMC_JC			V_R_1stMC_1stPP_JC			V_R_1stPP_1stDP_JC			V_R_LunCap_3rdMC_JC			V_R_3rdMC_3rdPP_JC			V_R_3rdPP_3rdMP_JC			V_R_3rdMP_3rdDP_JC			V_L_ScaTrpz_1stMC_JC			V_L_1stMC_1stPP_JC			V_L_1stPP_1stDP_JC			V_L_LunCap_3rdMC_JC			V_L_3rdMC_3rdPP_JC			V_L_3rdPP_3rdMP_JC			V_L_3rdMP_3rdPP_JC			V_ROOT_JC			V_R_Hip_JC			V_L_Hip_JC			V_R_GlenHum_JC			V_L_GlenHum_JC			V_ForeHead_Ctr			V_Vertex			V_Sagit_Lambdoid_Suture			V_R_FrontoTemp			V_L_FrontoTemporal			V_R_ParietalOccip			V_L_ParietalOcciptal			V_R_Temporal			V_L_Temporal			V_mid_FrontRearHead			V_mid_RLGlenHumCtrs			V_C7_vert			V_C1_vert			V_Mid_Hip			
		X1	Y1	Z1	X2	Y2	Z2	X3	Y3	Z3	X4	Y4	Z4	X5	Y5	Z5	X6	Y6	Z6	X7	Y7	Z7	X8	Y8	Z8	X9	Y9	Z9	X10	Y10	Z10	X11	Y11	Z11	X12	Y12	Z12	X13	Y13	Z13	X14	Y14	Z14	X15	Y15	Z15	X16	Y16	Z16	X17	Y17	Z17	X18	Y18	Z18	X19	Y19	Z19	X20	Y20	Z20	X21	Y21	Z21	X22	Y22	Z22	X23	Y23	Z23	X24	Y24	Z24	X25	Y25	Z25	X26	Y26	Z26	X27	Y27	Z27	X28	Y28	Z28	X29	Y29	Z29	X30	Y30	Z30	X31	Y31	Z31	X32	Y32	Z32	X33	Y33	Z33	X34	Y34	Z34	X35	Y35	Z35	X36	Y36	Z36	X37	Y37	Z37	X38	Y38	Z38	X39	Y39	Z39	X40	Y40	Z40	X41	Y41	Z41	X42	Y42	Z42	X43	Y43	Z43	X44	Y44	Z44	X45	Y45	Z45	X46	Y46	Z46	X47	Y47	Z47	X48	Y48	Z48	X49	Y49	Z49	X50	Y50	Z50	X51	Y51	Z51	X52	Y52	Z52	X53	Y53	Z53	X54	Y54	Z54	X55	Y55	Z55	X56	Y56	Z56	X57	Y57	Z57	X58	Y58	Z58	X59	Y59	Z59	X60	Y60	Z60	

331	2.750	45.86125	-56.47088	1566.84521	-51.37967	-47.83408	1464.17249	161.19339	-56.30154	1490.36096	-16.75319	-32.01902	1324.85901	182.16743	-41.00748	1380.88000	110.50123	77.84464	1290.08545	79.84102	-136.29123	1294.42407	169.76503	148.07515	1288.51904	120.47103	-233.59007	1295.92212	238.81393	40.56041	1307.27588	224.64407	-139.87906	1303.00220	286.57425	19.64158	1226.07886	175.79512	202.74861	1148.75745	232.55930	219.99179	995.65192	249.82631	143.84221	980.33099	167.08801	229.03601	910.64996	212.89320	252.01166	831.85693	148.61348	222.44641	773.49060	165.66624	261.24005	743.74738	132.46625	231.22003	719.32050	123.48595	218.87595	682.15735	120.87050	211.83185	640.15259	162.51573	281.64877	668.11774	166.80542	265.52188	616.96271	181.63893	246.95506	582.97308	125.29353	-292.68799	1147.83594	164.96393	-308.20175	1001.41833	195.64677	-232.86641	993.26306	77.85760	-282.35428	945.99329	75.56881	-316.41214	852.49188	23.44252	-256.70047	818.47986	10.22371	-303.99274	795.28809	-13.31971	-263.06906	786.77448	-29.35800	-240.30212	750.41644	-39.88844	-231.10612	702.10571	-32.79345	-308.70410	718.02496	-41.64497	-296.44604	678.65668	-37.18720	-265.10654	642.51373	302.91635	-31.39887	915.44391	109.65681	119.99886	975.80951	119.37368	-198.98441	961.44586	42.87389	165.14163	599.13159	-51.39619	102.96411	520.01740	-4.20764	138.60335	457.50449	-22.42018	24.99587	456.10004	57.53845	83.57945	294.03461	214.20282	85.25783	128.46989	178.75385	-3.23750	135.80164	267.29636	17.94476	121.17332	94.58212	82.07584	57.59113	121.27701	33.53922	95.52991	127.36226	-207.30641	581.00757	106.34888	-169.50417	445.95282	85.44485	-50.69844	434.58072	107.44753	-103.22187	251.95821	185.43506	-114.31128	64.96669	169.31201	-24.57154	84.88645	242.35023	-64.37961	43.54380	37.99040	-82.23090	42.11199	92.34380	-48.66688	63.55889																																																																																																																															
332	2.758	41.03955	-56.62257	1566.78577	-56.32492	-47.93595	1463.80103	156.37071	-56.06421	1490.87305	-21.09854	-32.05532	1324.67151	176.96365	-41.65294	1381.05371	107.92908	77.74824	1289.36682	75.38338	-136.63902	1294.15808	165.80565	147.22726	1288.70239	116.09659	-233.24542	1296.05701	235.34123	39.73341	1307.00842	220.16029	-140.38272	1303.44080	282.58160	20.79443	1225.55688	171.61688	203.09676	1148.84326	230.31633	219.14786	996.78174	246.56456	143.37675	979.82758	165.34363	229.15799	910.89954	211.77437	251.31023	832.42590	147.36031	223.29599	773.40155	165.20653	261.14322	743.09515	132.09064	231.34605	719.12451	123.28012	217.57059	681.41742	120.64081	211.47702	640.01208	163.36917	281.75012	667.23779	167.83778	265.21255	616.58514	181.63899	244.99052	582.71161	120.61504	-293.52768	1147.76733	160.60052	-308.25372	1001.24847	190.70195	-230.75893	993.41400	71.85609	-283.22464	945.59875	71.87952	-317.00653	852.49646	17.97144	-257.07083	817.97821	5.56027	-304.40485	794.62207	-18.19495	-262.92731	787.22144	-31.92251	-240.41702	750.22717	-44.66016	-229.27808	702.20801	-37.17454	-308.08380	717.95404	-45.93061	-295.72678	678.79230	-41.67741	-264.27826	642.61542	298.53119	-30.63175	915.50946	105.71284	119.41187	975.25275	116.61366	-198.44440	961.53210	36.36014	163.90367	599.15936	-58.19573	101.49829	522.08948	-11.46931	138.30249	459.21103	-29.53651	24.28762	457.52771	45.38679	82.91963	293.93149	197.16530	85.36591	123.30762	160.82870	-1.59038	131.11708	250.56691	17.38934	114.57200	75.62473	83.47211	57.81608	104.13400	33.84154	94.80467	125.35500	-206.99538	581.17535	105.15311	-169.50342	445.58633	84.13090	-51.21026	434.87561	107.29136	-103.57762	251.92604	185.22855	-114.23558	65.18625	167.67220	-25.25113	84.31271	241.94626	-64.24818	43.40770	38.06968	-82.45124	41.90946	92.60903	-49.17226	63.89266																																																																																																																															
333	2.767	37.17300	-57.00395	1566.51697	-60.92914	-47.63046	1463.25415	151.75583	-55.96954	1490.51172	-25.27038	-32.20067	1323.34106	171.74533	-40.63096	1381.15015	102.53078	77.24356	1289.78857	71.04482	-135.99376	1294.04700	161.83797	147.87982	1288.68372	111.44003	-233.48575	1295.77551	230.42175	39.37970	1307.56494	215.54326	-140.19905	1303.50208	278.18152	19.04859	1225.96313	167.58699	203.11734	1148.84778	227.47516	218.73433	996.21649	243.66496	142.51645	980.44885	163.76941	229.65315	910.96405	210.45538	251.16412	832.48615	146.08791	223.33739	773.38123	164.85277	261.29221	742.81989	131.74336	231.64316	719.08337	123.20887	217.72495	681.22394	120.06577	210.85391	639.36035	164.23569	280.71066	666.55438	169.06732	264.65845	616.34229	182.92775	242.81270	582.66290	116.15087	-292.63184	1147.82275	155.85716	-308.93427	1001.15186	185.10846	-232.69177	993.67480	67.37783	-283.58380	944.94788	67.58840	-317.57629	852.63318	15.61425	-257.07538	817.38281	1.55124	-304.33057	794.25110	-21.66028	-262.73810	787.30646	-37.54312	-240.28546	750.31775	-50.15860	-230.36978	701.69727	-41.58096	-307.83044	717.59235	-50.32552	-295.55795	678.01056	-46.18937	-263.47806	643.01935	294.15768	-30.65198	915.47473	100.40647	119.59051	974.89703	110.43665	-198.57539	961.37024	30.97150	164.05473	600.01953	-64.31300	100.05691	523.72125	-18.86949	137.45549	459.80234	-35.91339	24.27217	458.35309	34.21214	83.73528	293.64035	181.07494	85.96629	118.82011	142.82700	0.61673	127.82658	234.30923	18.02346	107.51896	56.14053	84.37679	56.75169	85.45338	36.22596	91.67469	122.68986	-207.21078	581.19751	103.73872	-169.44952	445.27859	82.92715	-51.66698	434.24094	106.84370	-104.07827	252.13470	185.32974	-113.94633	65.15845	168.56355	-24.73610	83.97043	242.27130	-63.82057	43.19185	37.75661	-82.43956	41.84169	92.38441	-48.93680	64.07931																																																																																																																															
334	2.775	32.36736	-56.63809	1566.28723	-65.52966	-47.28087	1462.69275	147.49771	-56.80575	1490.63916	-29.63079	-32.59226	1323.79248	167.18297	-40.23349	1381.04517	97.91150	77.55636	1289.67041	66.52899	-136.67535	1293.88904	158.21625	148.49786	1288.55774	106.99658	-232.92937	1295.47998	227.11913	40.54284	1306.59534	211.62970	-140.45488	1303.74780	274.45840	19.03934	1225.84167	164.96236	202.83702	1148.37231	223.88844	218.22087	996.48932	240.58376	141.56374	980.81299	160.72656	228.92822	911.13104	209.24684	250.63452	832.39600	143.89919	224.17262	773.32312	164.44769	262.02414	742.79095	131.48222	232.11092	717.76892	121.57500	217.25967	681.50983	119.55866	210.58127	639.06030	164.67371	280.58939	666.13818	169.22360	263.98953	616.27826	184.01773	241.56778	583.09137	111.62224	-293.22427	1147.94116	150.73422	-309.29666	1001.52930	181.22244	-233.37753	993.03119	63.07065	-283.30701	945.27246	62.72931	-317.76288	852.35132	8.95847	-257.02298	818.31818	-3.02875	-304.23080	793.90723	-26.34159	-262.90427	786.78229	-40.78939	-239.19037	749.52405	-51.85208	-230.10497	701.22595	-45.80742	-307.90887	717.32117	-55.11367	-295.60974	677.70343	-50.01842	-262.40613	642.77325	290.50519	-30.67197	915.76257	96.01193	118.57172	975.25671	108.55883	-198.90228	961.26733	24.18673	164.45424	600.30554	-70.25671	99.51598	525.11279	-25.03600	137.06358	461.19119	-41.91282	23.48207	459.66818	22.84427	83.56409	294.19113	162.28745	85.86684	114.56650	125.83215	0.91807	124.58098	215.19908	19.39017	100.44490	38.33550	87.39433	56.87574	67.79905	37.22746	90.00297	120.82394	-207.47017	581.07367	102.84643	-169.31384	445.31332	82.75021	-50.25548	434.08810	106.72258	-103.36073	251.22786	184.97829	-114.79922	66.31269	168.12376	-24.83615	84.27972	242.15884	-63.52871	43.21149	38.07938	-82.62437	42.05011	92.74335	-49.34349	63.50321																																																																																																																															
335	2.783	27.27147	-56.36960	1564.99646	-70.24247	-46.86999	1462.67407	142.19850	-56.50967	1490.08020	-33.98326	-32.45778	1323.32800	164.25739	-40.38663	1380.68909	93.70128	77.68555	1289.31946	62.03866	-136.22269	1293.47437	153.91350	148.51147	1288.69067	102.10187	-232.91345	1294.99939	222.00740	40.39891	1306.19434	206.80702	-140.04129	1303.82520	270.10602	18.36269	1225.80493	161.89821	203.17747	1148.83423	222.08681	218.19101	996.60468	236.53813	142.08194	980.69501	158.53773	230.12955	910.30408	207.28873	250.86333	832.56128	142.90532	224.31134	772.45227	164.02655	262.60364	742.22192	129.26163	231.73454	717.12506	119.04757	217.89981	680.71149	119.42225	210.20872	638.66132	163.77289	280.49951	665.83307	169.62985	263.59152	615.94403	184.23917	241.34378	582.36407	107.25983	-293.03040	1147.82446	146.42400	-309.07455	1001.45923	176.99730	-234.31894	991.99817	59.00140	-283.48029	945.00745	57.95946	-317.86588	852.13208	7.00490	-256.69482	817.18536	-6.09420	-304.53033	794.83215	-29.63042	-262.10803	786.42615	-47.16207	-238.78084	750.34290	-55.53384	-230.28687	700.44049	-50.05025	-307.53333	716.69061	-59.52900	-295.69180	677.58649	-55.06306	-263.13382	641.99762	285.98248	-30.55404	915.23083	92.41002	117.67435	975.38409	105.33166	-197.99773	961.07495	19.45709	165.09106	601.41180	-76.05219	98.10895	526.57227	-31.63974	136.72156	462.57419	-48.25146	22.38553	461.15747	10.63946	84.56786	293.71048	146.05016	87.37546	109.46352	109.14752	1.70704	121.09155	197.53389	18.19141	94.74374	18.84924	88.20804	56.23154	49.28742	38.76224	88.22867	118.07249	-207.89722	581.05884	101.26083	-169.18825	444.95276	81.19301	-50.00535	433.76111	105.65255	-103.72158	251.23875	185.12764	-113.99470	65.18279	168.12376	-24.83615	84.27972	242.24017	-62.86813	42.91667	37.86839	-82.54729	41.91148	92.80180	-48.86285	63.26098																																																																																																																															
336	2.792	22.63338	-56.19088	1565.56775	-74.38313	-47.50525	1462.27930	137.38354	-56.20782	1489.97852	-37.83374	-31.48054	1322.94934	159.86255	-41.35227	1380.11792	89.19471	78.49443	1289.38757	57.00961	-135.49684	1293.08618	150.04909	148.54497	1288.17505	98.31748	-233.13483	1294.51111	217.54666	39.88049	1306.31262	202.69447	-140.59010	1303.30273	265.89108	19.08440	1225.78137	156.99306	204.14401	1149.08105	218.65460	218.16527	996.35498	234.25365	141.49889	981.25415	156.03671	230.90288	910.02209	205.44664	250.30118	832.81183	141.23489	223.71873	772.45258	161.71709	262.48282	741.67572	128.49718	231.84787	716.04730	118.53630	217.94806	680.43591	118.93850	209.78674	638.59906	162.68211	280.02988	665.64099	169.14999	263.36703	615.29614	184.22643	241.35811	582.13098	102.08385	-293.49149	1147.33948	141.77092	-308.41754	1000.78076	172.53912	-234.12170	991.71448	54.34077	-282.50070	944.32941	53.90478	-317.51721	852.02612	2.10388	-257.21649	816.16895	-12.12069	-304.22336	793.39075	-33.65053	-261.75928	785.59729	-48.43091	-239.33690	749.05737	-59.61531	-230.00279	700.84143	-54.53888	-307.09698	716.68134	-62.98472	-294.42624	677.18225	-58.62296	-263.65091	641.91290	282.35123	-30.04699	915.21399	87.25580	118.80071	974.58569	99.58337	-199.57928	961.20087	14.17669	164.47525	601.13330	-81.93493	97.65994	527.15851	-38.22581	135.99452	462.79782	-54.87682	20.87671	461.84335	-0.35657	85.25954	293.88376	128.31190	88.36162	105.78835	91.15815	1.85993	117.20526	182.93271	19.92495	87.52570	-0.60700	89.30711	56.46494	31.52971	40.51127	87.49211	115.23095	-207.13928	580.32788	99.79095	-169.24982	445.07028	80.42007	-50.02062	433.52097	104.93974	-103.52195	250.98651	185.07288	-113.83009	65.05447	168.18556	-24.55248	83.51987	242.12297	-63.11205	43.24657	37.69129	-82.62289	41.86289	92.58089	-49.44461	63.87299																																																																																																																															
